<svg width="512" height="512" viewBox="0 0 512 512" fill="none" xmlns="http://www.w3.org/2000/svg"><path fill="#000" d="M0 0h512v512H0z"/><path d="M431 156c0-41.421-33.579-75-75-75H156c-41.421 0-75 33.579-75 75v38.197C81 214.523 97.478 231 117.803 231a36.8 36.8 0 0 0 32.918-20.345L165.549 181a45.225 45.225 0 0 1 80.902 0l33.156 66.312c10.874 21.749 41.912 21.749 52.787 0A29.51 29.51 0 0 1 358.787 231h16.312C405.972 231 431 205.972 431 175.099z" fill="#fff"/><path fill-rule="evenodd" clip-rule="evenodd" d="M265.549 331a45.225 45.225 0 0 0 80.901 0l14.828-29.655A36.8 36.8 0 0 1 394.196 281C414.522 281 431 297.478 431 317.804V356c0 41.421-33.579 75-75 75H156c-41.421 0-75-33.579-75-75v-19.098C81 306.028 106.028 281 136.902 281h16.311a29.51 29.51 0 0 0 26.394-16.312c10.874-21.749 41.912-21.749 52.786 0zM169 331c0 13.807 11.193 25 25 25s25-11.193 25-25-11.193-25-25-25-25 11.193-25 25" fill="#fff"/></svg>